<?xml version="1.0" encoding="utf-8"?>
<svg version="1.1" xmlns="http://www.w3.org/2000/svg" xmlns:xlink="http://www.w3.org/1999/xlink" height="126" width="218">
  <defs>
    <path id="path-1" opacity="1" fill-rule="evenodd" d="M16,89.5 L52.5,43 C52.5,43 55.999999999999986,38.49999999999999 62.99999999999999,38.5 C70,38.50000000000001 73.5,43 73.5,43 L111.50000000000001,91 C111.50000000000001,91 113.50000000000006,95 109.00000000000001,98.5 C104.50000000000001,101.99999999999997 101.00000000000001,98.5 101.00000000000001,98.5 L63.99999999999999,53 C63.99999999999999,53 63.5,52.49999999999999 62.99999999999999,52.49999999999999 C62.5,52.49999999999999 62,53 62,53 L26,98.5 C26,98.5 20.5,102.50000000000001 16.5,98 C12.5,93.5 16,89.5 16,89.5Z"/>
    <path id="path-2" opacity="1" fill-rule="evenodd" d="M125.5,97.65680473372782 L81.99999999999999,43.65680473372782 C81.99999999999999,43.65680473372782 78.5,38.65680473372784 83.5,34.65680473372783 C88.5,30.656804733727824 92.49999999999999,35.15680473372782 92.49999999999999,35.15680473372782 L136,89.65680473372782 C136,89.65680473372782 138.5,94.15680473372782 134.5,97.65680473372782 C130.5,101.15680473372781 125.5,97.65680473372782 125.5,97.65680473372782Z"/>
    <linearGradient id="linearGradient-3" x1="0.15" y1="0.06" x2="0.71" y2="0.66">
      <stop offset="0" stop-color="rgb(0,112,192)" stop-opacity="1"/>
      <stop offset="1" stop-color="rgb(112,173,71)" stop-opacity="1"/>
    </linearGradient>
    <path id="path-4" opacity="1" fill-rule="evenodd" d="M150.69097222222223,97.65680473372782 L107.19097222222221,43.65680473372781 C107.19097222222221,43.65680473372781 103.69097222222223,38.656804733727824 108.69097222222223,34.656804733727824 C113.69097222222223,30.656804733727817 117.69097222222221,35.15680473372781 117.69097222222221,35.15680473372781 L161.19097222222223,89.65680473372782 C161.19097222222223,89.65680473372782 163.69097222222223,94.15680473372782 159.69097222222223,97.65680473372782 C155.69097222222223,101.1568047337278 150.69097222222223,97.65680473372782 150.69097222222223,97.65680473372782Z"/>
    <path id="path-5" opacity="1" fill-rule="evenodd" d="M174.69097222222223,97.65680473372782 L131.19097222222223,43.65680473372781 C131.19097222222223,43.65680473372781 127.69097222222223,38.656804733727824 132.69097222222223,34.656804733727824 C137.69097222222223,30.656804733727817 141.69097222222223,35.15680473372781 141.69097222222223,35.15680473372781 L185.19097222222223,89.65680473372782 C185.19097222222223,89.65680473372782 187.69097222222223,94.15680473372782 183.69097222222223,97.65680473372782 C179.69097222222223,101.1568047337278 174.69097222222223,97.65680473372782 174.69097222222223,97.65680473372782Z"/>
    <ellipse id="ellipse-6" opacity="1" rx="8" ry="8" cx="75" cy="25"/>
    <ellipse id="ellipse-7" opacity="1" rx="10.5" ry="10.5" cx="63.5" cy="82.5"/>
    <path id="path-8" opacity="1" fill-rule="evenodd" d="M200,50.5 C200,40.841487884521484 192.15850830078125,33 182.5,33 C172.84149169921875,33 165,40.841487884521484 165,50.5 C165,60.158512115478516 172.84149169921875,68 182.5,68 C192.15850830078125,68 200,60.158512115478516 200,50.5 L189,50.5 C189,46.91255187988281 186.0874481201172,44 182.5,44 C178.9125518798828,44 176,46.91255187988281 176,50.5 C176,54.08744812011719 178.9125518798828,57 182.5,57 C186.0874481201172,57 189,54.08744812011719 189,50.5 L200,50.5Z"/>
  </defs>
  <g transform="translate(2.2737367544323206e-13, 0)" opacity="1">
    <g opacity="1">
      <use xlink:href="#path-1" fill="rgb(255,0,0)" fill-opacity="1"/>
    </g>
    <g opacity="1">
      <use xlink:href="#path-2" fill="url(#linearGradient-3)" fill-opacity="1"/>
    </g>
    <g opacity="1">
      <use xlink:href="#path-4" fill="rgb(112,173,71)" fill-opacity="1"/>
    </g>
    <g opacity="1">
      <use xlink:href="#path-5" fill="rgb(112,173,71)" fill-opacity="1"/>
    </g>
    <g opacity="1">
      <use xlink:href="#ellipse-6" fill="rgb(0,112,192)" fill-opacity="1"/>
    </g>
    <g opacity="1">
      <use xlink:href="#ellipse-7" fill="rgb(255,0,0)" fill-opacity="1"/>
    </g>
    <g>
      <use xlink:href="#path-8" fill="rgb(255,192,0)" fill-opacity="1"/>
    </g>
  </g>
</svg>