<svg xmlns="http://www.w3.org/2000/svg" xmlns:xlink="http://www.w3.org/1999/xlink" width="138.071" height="84.331" viewBox="0 0 138.071 84.331">
  <defs>
    <path id="path-1" fill-rule="evenodd" d="M32.87401596 2c0-1.1045695.8954305-2 2-2h67.81708055c1.1045695 0 2 .8954305 2 2v63.26377953c0 1.1045695-.8954305 2-2 2H79.4033921v-19.8277559H59.67898264v19.8277559H34.87401596c-1.1045695 0-2-.8954305-2-2V2z"/>
    <mask id="mask-2" maskContentUnits="userSpaceOnUse" maskUnits="userSpaceOnUse">
      <rect width="138.071" height="84.331" x="0" y="0" fill="black"/>
      <use fill="white" xlink:href="#path-1"/>
    </mask>
  </defs>
  <g>
    <g>
      <use fill="none" xlink:href="#path-1"/>
      <g mask="url(#mask-2)">
        <path fill="rgb(18,42,136)" fill-rule="evenodd" d="M69.03543854 67.26376919c17.44851684 0 33.12689209-14.73254395 33.12689209-32.87893677 0-18.14639282-14.84365845-32.87893677-33.1268921-32.87893677-18.28323363 0-33.12689208 14.73254395-33.12689208 32.87893677 0 18.14639282 16.1841278 32.87893677 33.12689209 32.87893677zm20.98878479-32.87893677c0-11.49731445-9.40475464-20.83169556-20.9887848-20.83169556-11.58403014 0-20.98880004 9.3343811-20.98880004 20.83169556 0 11.49731445 9.4047699 20.83169556 20.98880005 20.83169556 11.58403015 0 20.98878479-9.3343811 20.98878479-20.83169556z"/>
      </g>
    </g>
    <path fill="rgb(248,182,43)" fill-rule="evenodd" d="M63.89450836 27.78143887h11.75071716V39.4594479H63.89450836V27.78143887zm7.05613709 3.84259033h-2.36157227c-.96966553 0-1.75689697.78723144-1.75689697 1.75689697 0 .96963501.78723144 1.75689697 1.75689697 1.75689697h2.36157227c.96965027 0 1.75688171-.78726196 1.75688171-1.75689697 0-.96966553-.78723144-1.75689697-1.75688171-1.75689697zm-7.05613709 9.29519653h11.75071716v26.27554321H63.89450836v-26.2755432z"/>
    <path fill="rgb(18,42,136)" fill-rule="evenodd" d="M0 84.33069424V70.27557949h4.55178833v14.05511475H0zm6.57480621 0V70.27557949h5.0575409l7.5863037 8.78445435v-8.78445435h4.55178834v11.54528809h14.91973877s1.01152038-.25100708 1.01152038-1.75689698c0-1.5059204-1.01152038-1.75689697-1.01152038-1.75689697H28.32222748s-3.5402832.50198364-3.5402832-3.7647705c0-4.26672364 3.5402832-4.26672364 3.5402832-4.26672364h20.73591614v14.05511475h-4.55178833V73.28738979H30.34523773s-1.01150513 0-1.01150513 1.25491333c0 1.25494385 1.01150513 1.25494385 1.01150513 1.25494385h8.34494019s4.80467224.50195313 4.80467224 4.26672363c0 3.76477051-4.29890442 4.26672364-4.29890442 4.26672364H19.21865082l-8.09205628-9.37005616v9.37005616H6.57480621zm52.09266663-5.52163697v-3.0118103h9.60932922v8.53344727h-12.1381073s-6.06904602-.50195313-6.06904602-7.27853394c0-6.7765808 6.57479859-6.7765808 6.57479859-6.7765808h17.19564819v5.52166747h7.0805664V70.2755795h21.74742127v3.0118103h-6.57479858v11.04330445h-4.55178833V73.28738979h-6.06904602v11.04330445h-4.55178833v-5.52163697h-7.08056641v5.52163697h-4.55178833V73.28738979h-12.1381073s-2.52876282.25097657-2.52876282 3.76477051c0 3.51376343 2.52876282 4.26672363 2.52876282 4.26672363h7.58631897v-2.50982666h-6.06904602z"/>
    <path fill="rgb(248,182,43)" fill-rule="evenodd" d="M119.35796356 73.78937344c0 3.26278686 2.52877808 3.26278686 2.52877808 3.26278686s-2.52877808 0-2.52877808 3.0118103 4.04603577 3.76477051 4.04603577 3.76477051h10.873703s3.79316712-.25100708 3.79316712-3.26281738-2.52877808-3.51376343-2.52877808-3.51376343 2.52877808 0 2.52877808-3.26278686c0-3.26281739-3.2873993-3.51379395-3.2873993-3.51379395h-11.37947082s-4.04603577.25097656-4.04603577 3.51379395zm6.3086853-1.00393677h5.58978272c.96966553 0 1.75689697.78723144 1.75689697 1.75689697 0 .96963501-.78723144 1.75689697-1.75689697 1.75689697h-5.58978272c-.96966552 0-1.75689697-.78726196-1.75689697-1.75689697 0-.96966553.78723145-1.75689697 1.75689697-1.75689697zm0 5.52163696h5.58978272c.96966553 0 1.75689697.78723145 1.75689697 1.75689697 0 .96963501-.78723144 1.75689698-1.75689697 1.75689698h-5.58978272c-.96966552 0-1.75689697-.78726197-1.75689697-1.75689698 0-.96966552.78723145-1.75689697 1.75689697-1.75689697z"/>
    <path fill="rgb(248,182,43)" fill-rule="evenodd" d="M99.63355255 77.55411343c0-6.0236206 6.8276825-7.27853394 6.8276825-7.27853394h11.12658691v2.76083374h-10.11508179c-3.5402832 0-3.28739929 3.0118103-3.28739929 3.0118103h10.11508179s3.79315185.7529602 4.04603577 4.01574707c.25286865 3.26278687-4.04603577 3.76477051-4.04603577 3.76477051h-8.85069275s-5.81617737-.25100708-5.81617737-6.27462768zm9.86221314 4.51776123c-3.03453064 0-4.55178833-.50198365-4.55178833-2.00787354v-1.5059204h8.09207153s1.01150513-.25097657 1.01150513 1.5059204c0 1.75686646-1.5172577 2.00787354-4.55178833 2.00787354z"/>
  </g>
</svg>
